<?xml version="1.0"?><svg width="640" height="480" xmlns="http://www.w3.org/2000/svg">
 <title>champagne glass pink</title>
 <metadata id="metadata3852">image/svg+xmlchampagne glasschampagnestemwareflute glasscheerscelebrationhappy timesparty2010-12-25Srinivasbala from netalloy.com</metadata>
 <g>
  <title>Layer 1</title>
  <path opacity="0.65" id="path3019" fill="#e72e45" d="m304.300995,68.911102l-78.559998,-22.199402c-22.54599,72.442299 -51.000992,126.867294 -24.145996,210.261322c-2.921005,65.595978 -23.981003,130.490967 -37.893997,130.69397c-18.462997,0.269012 -40.208008,-4.954987 -39.283005,3.747009l-0.435997,6.677002c8.984993,7.147003 22.695,13.871002 49.659004,23.28299c31.100998,6.330994 41.727997,5.451996 55.401001,5.645996l2.547989,-7.365997c3.380997,-9.772003 -8.188004,-11.298004 -32.87999,-23.182007c-15.88501,-7.644989 3.238998,-83.125977 30.173996,-136.210999c58.949005,-54.491989 61.26001,-136.728989 75.416992,-191.349884l0,0z"/>
  <path id="path3789" opacity="0.863415" fill="#ffffff" d="m281.43399,64.745697l-34.765991,132.8573c0,0 -3.084,11.499008 -0.766006,12.189011c2.485001,0.738998 6.003006,-11.515015 6.003006,-11.515015l35.153992,-132.753189l-5.625,-0.778107z"/>
  <path opacity="0.65" id="path3794" fill="#e72e45" d="m397.996002,25.278601l-87.05899,22.062899c18.366974,81.422508 21.194977,148.928505 92.653992,213.610497c33.299011,64.10199 48.932007,137.515991 35.786987,145.363007c-17.442993,10.411987 -41.033997,17.397003 -35.36499,25.178986l3.257996,6.60202c12.48999,1.865997 29.252014,0.730988 60.119019,-5.134003c33.113983,-11.076019 42.755981,-17.759003 55.888977,-25.095001l-1.622986,-8.420013c-2.153992,-11.169983 -14.016998,-6.259979 -44.080017,-4c-19.339996,1.45401 -42.638977,-80.97998 -46.177002,-146.372986c26.190002,-84.345001 -16.845001,-163.967308 -33.402985,-223.795296l0,-0.000099l0,0l0,0l0,0l0,-0.00001z"/>
  <path id="path3796" opacity="0.814634" fill="#ffffff" d="m375.971985,35.2435l39.958008,145.703506c0,0 3.386017,12.653 5.976013,12.034988c2.77298,-0.661987 -0.615997,-14.272995 -0.615997,-14.272995l-39.529999,-145.8181l-5.788025,2.3526z"/>
 </g>
</svg>